<svg width="16" height="16" viewBox="0 0 16 16" fill="none" xmlns="http://www.w3.org/2000/svg">
<path d="M2.96646 9.27198L7.60154 13.6261C7.7612 13.7761 7.84103 13.8511 7.93516 13.8696C7.97755 13.8779 8.02115 13.8779 8.06354 13.8696C8.15766 13.8511 8.23749 13.7761 8.39716 13.6261L13.0322 9.27198C14.3363 8.0469 14.4947 6.0309 13.3979 4.61722L13.1917 4.3514C11.8795 2.66022 9.24577 2.94385 8.32379 4.8756C8.19356 5.14848 7.80514 5.14848 7.6749 4.8756C6.75293 2.94385 4.11916 2.66022 2.80705 4.3514L2.60081 4.61722C1.50398 6.0309 1.66235 8.0469 2.96646 9.27198Z" fill="white" stroke="#262626" stroke-width="1.33333"/>
</svg>
